<svg width="168" height="168" viewBox="0 0 168 168" fill="none" xmlns="http://www.w3.org/2000/svg">
<g clip-path="url(#clip0_49_47)">
<path d="M12.6411 81.3058C14.2794 80.4 16.6121 79.6589 18.4771 79.5602C23.9419 79.2265 28.1878 82.1445 30.7657 86.8073C32.1359 89.2858 33.0109 92.2574 33.1728 95.1296C33.5287 101.131 31.0602 108.967 25.5151 112.033C23.3728 113.217 21.9366 113.298 20.2061 111.458C17.5313 108.604 15.2089 104.403 13.3045 100.958C11.9807 98.5638 10.7177 96.0809 9.47798 93.64C8.54014 91.7452 7.00633 89.4669 6.36698 87.5168C5.85264 85.9912 7.09613 84.3713 8.39837 83.6514C8.90246 83.3727 9.41099 83.2013 9.91508 82.9226C10.8393 82.4116 11.717 81.8167 12.6411 81.3058ZM23.1012 102.508C23.3334 102.928 24.3409 104.949 25.0195 103.696C26.7623 99.6061 26.1954 94.2154 24.082 90.3927C22.1776 86.9481 18.6681 84.1715 14.7194 86.3546C14.3833 86.5403 14.8433 87.2733 14.9595 87.4833C17.6302 92.3142 19.7969 97.4237 23.1012 102.508ZM44.7704 67.063C46.7713 66.3872 49.3529 66.6806 51.2689 67.5534C57.9897 70.5019 62.5935 79.3331 67.0022 84.8864C67.3684 85.3707 67.75 85.9005 67.9496 86.4917C68.6408 88.5381 67.2659 90.1677 65.3559 90.8128C61.4904 92.1183 60.6746 89.2526 59.0248 86.618C58.5972 85.9518 58.1695 85.2856 57.7118 84.6803C57.5133 84.3927 57.3757 84.1352 56.9664 84.2734C55.0564 84.9185 53.1163 85.6244 51.2062 86.2694C50.9334 86.3616 50.6907 86.3929 50.4633 86.4697C50.0995 86.5925 50.0699 86.8052 50.0865 87.1542C50.181 88.0342 50.2602 88.8688 50.3548 89.7488C50.6698 92.6316 52.655 95.6595 48.3802 97.1032C46.7885 97.6408 44.6027 97.6191 43.9576 95.7091C42.4985 91.3888 42.5248 86.5162 42.3704 82.0086C42.2692 79.459 42.1982 76.8484 42.0971 74.2988C42.0296 72.599 41.2912 70.1125 42.4239 68.666C43.0281 67.9047 43.8608 67.3702 44.7704 67.063ZM49.7804 74.997C49.553 75.0738 49.5088 75.3927 49.5247 75.59C49.5265 76.0454 49.6945 80.1431 49.7406 80.2795C49.8942 80.7342 50.3501 80.8842 50.7594 80.746L53.0787 79.9627C53.488 79.8245 53.7142 79.4441 53.576 79.0348C53.3917 78.4891 50.8459 75.7518 50.2671 75.238C50.1301 75.1322 49.9623 74.9356 49.7804 74.997ZM85.5198 76.9889C85.7936 77.5308 86.119 77.4344 86.2251 76.8366C87.5844 69.2619 87.8906 61.454 89.5489 53.9323C89.895 52.3288 91.5277 51.5548 92.9999 51.3381C94.6619 51.0934 97.0057 51.5247 97.2923 53.4717C97.4042 54.2315 95.8913 62.4111 95.6946 64.0411C94.7347 71.3629 93.8627 78.6233 92.305 85.8391C91.8123 88.0949 91.1156 90.2837 88.4088 90.6822C85.512 91.1086 84.1932 89.0709 82.6494 86.8238C78.6525 80.7653 75.2924 74.419 73.0567 67.4705C72.7884 66.6367 72.4251 65.8168 72.2993 64.9621C71.9777 62.7776 73.9009 61.6697 75.8004 61.3901C76.2753 61.3202 76.8046 61.2908 77.3005 61.3633C79.2839 61.6536 79.8665 62.9748 80.3626 64.6969C81.5756 68.982 83.304 73.1426 85.5198 76.9889ZM114.307 59.1388C116.421 59.1082 118.319 59.8393 118.341 62.2411C118.441 66.7584 118.081 70.6371 117.892 75.1935C117.781 77.207 117.401 78.6359 117.446 80.2701C116.957 82.1278 115.441 82.9933 113.615 83.0328C111.212 83.1025 109.748 82.2888 109.732 79.695C109.713 78.782 109.838 77.8254 109.915 76.9153C110.123 73.2721 110.093 72.6948 110.35 69.053C110.462 66.9915 110.597 65.7471 110.563 63.7291C110.513 60.7021 110.896 59.1772 114.307 59.1388ZM114.314 55.8254C112.537 55.8184 110.403 54.9359 110.371 52.8699C110.339 50.804 112.432 49.9083 114.21 49.8673C115.988 49.8264 118.171 50.6623 118.203 52.7283C118.234 54.8423 116.14 55.7859 114.314 55.8254ZM144.721 61.6246C146.462 62.3147 148.516 63.6457 149.776 65.0235C153.505 69.0325 153.948 74.1653 151.984 79.118C150.94 81.7506 149.2 84.3139 147.085 86.2632C142.676 90.3496 135.055 93.4205 129.165 91.0847C126.89 90.1822 125.915 89.1244 126.237 86.6188C126.743 82.74 128.512 78.278 129.963 74.6193C130.972 72.076 132.088 69.5234 133.186 67.0155C134.053 65.0877 134.839 62.4559 135.939 60.7235C136.791 59.3572 138.832 59.2888 140.215 59.8374C140.75 60.0497 141.206 60.3336 141.741 60.5459C142.723 60.9352 143.74 61.2353 144.721 61.6246ZM134.989 83.1702C134.812 83.6164 133.891 85.6781 135.29 85.4066C139.556 84.1551 143.359 80.2933 144.969 76.2329C146.42 72.5742 146.336 68.0999 142.142 66.4365C141.785 66.295 141.511 67.1158 141.422 67.3389C139.387 72.4701 136.817 77.389 134.989 83.1702Z" fill="#3277B4"/>
<path d="M25.153 127.481C49.153 112.481 104.953 86.6811 136.153 103.481" stroke="#3277B4" stroke-width="4" stroke-linecap="round"/>
<path d="M144.613 111.651C145.865 112.167 147.11 112.168 148.347 111.653C149.585 111.138 150.462 110.255 150.978 109.003C151.494 107.751 151.495 106.506 150.98 105.269C150.465 104.031 149.582 103.154 148.33 102.638C147.078 102.122 145.833 102.121 144.596 102.636C143.358 103.151 142.481 104.034 141.965 105.286C141.449 106.538 141.448 107.783 141.963 109.02C142.478 110.258 143.361 111.135 144.613 111.651ZM145.439 109.648C144.738 109.359 144.245 108.873 143.961 108.189C143.676 107.505 143.679 106.813 143.968 106.112C144.257 105.411 144.743 104.918 145.427 104.634C146.111 104.349 146.803 104.352 147.504 104.641C148.205 104.93 148.698 105.416 148.982 106.1C149.267 106.783 149.264 107.476 148.975 108.177C148.686 108.878 148.2 109.371 147.516 109.655C146.832 109.939 146.14 109.937 145.439 109.648ZM135.156 111.852C134.605 111.625 134.215 111.235 133.984 110.681C133.754 110.127 133.752 109.574 133.979 109.023L138.935 97.0059C139.162 96.4551 139.552 96.0644 140.106 95.8339C140.66 95.6034 141.213 95.6017 141.763 95.8289L144.918 97.1297L147.597 95.8908L153.606 98.3686L154.632 101.136L157.787 102.436C158.338 102.664 158.728 103.054 158.959 103.608C159.189 104.162 159.191 104.714 158.964 105.265L154.008 117.283C153.781 117.834 153.391 118.224 152.837 118.455C152.283 118.685 151.73 118.687 151.179 118.46L135.156 111.852ZM135.982 109.849L152.005 116.457L156.961 104.439L152.905 102.767L151.903 100.01L147.647 98.2551L144.993 99.5043L140.938 97.8318L135.982 109.849Z" fill="#3277B4"/>
<path d="M121.544 8.44744C127.778 7.51998 133.653 8.51517 138.106 10.8251C142.56 13.1357 145.522 16.7154 146.154 20.962C147.28 28.5283 140.609 36.3347 130.117 39.2754L129.235 39.5232L129.403 40.4223C129.579 41.3647 129.297 42.5486 128.613 43.8977C127.939 45.2262 126.939 46.5874 125.881 47.8288C125.064 48.7878 124.227 49.657 123.508 50.3629C123.538 50.0293 123.568 49.6772 123.592 49.3136C123.661 48.2832 123.697 47.1461 123.644 46.0765C123.592 45.0248 123.451 43.9577 123.124 43.1119C122.826 42.3403 122.371 41.5713 121.877 40.8647L121.585 40.4481L121.076 40.4379L120.594 40.4258C110.507 40.0765 102.709 34.7452 101.644 27.5845C101.012 23.3379 102.804 19.0508 106.392 15.5436C109.98 12.0375 115.311 9.37491 121.544 8.44744Z" stroke="#3277B4" stroke-width="2"/>
<path d="M109.99 61.1918C110.307 59.9254 111.491 59.0719 112.793 59.1704C114.789 59.3212 115.922 61.5263 114.882 63.2369L111.656 68.5471C111.226 69.255 110.357 69.5621 109.577 69.2816C108.735 68.9786 108.26 68.0867 108.478 67.2187L109.99 61.1918Z" fill="#3277B4"/>
<path d="M113.668 64.3008C112.154 62.2336 113.536 59.3115 116.094 59.169C117.798 59.0741 119.281 60.3211 119.48 62.0158L120.073 67.0497C120.195 68.089 119.452 69.0307 118.412 69.153C117.734 69.2328 117.065 68.9415 116.662 68.3905L113.668 64.3008Z" fill="#3277B4"/>
<rect x="119.042" y="19.2522" width="1.80221" height="11.7144" rx="0.901106" transform="rotate(-11.3612 119.042 19.2522)" fill="#3277B4"/>
<rect x="115.863" y="21.7292" width="1.80221" height="8.10996" rx="0.901106" transform="rotate(-11.3612 115.863 21.7292)" fill="#3277B4"/>
<rect x="122.753" y="19.4258" width="1.80221" height="9.91217" rx="0.901106" transform="rotate(-11.3612 122.753 19.4258)" fill="#3277B4"/>
<rect x="125.754" y="16.0652" width="1.80221" height="15.3188" rx="0.901106" transform="rotate(-11.3612 125.754 16.0652)" fill="#3277B4"/>
<rect x="129.821" y="18.0056" width="1.80221" height="9.91217" rx="0.901106" transform="rotate(-11.3612 129.821 18.0056)" fill="#3277B4"/>
<rect x="44.4008" y="116" width="33.1008" height="33.1008" rx="3" transform="rotate(14.4286 44.4008 116)" fill="#B9E1A6"/>
<mask id="mask0_49_47" style="mask-type:alpha" maskUnits="userSpaceOnUse" x="46" y="126" width="21" height="21">
<rect x="48.6541" y="126.072" width="17.8974" height="17.8974" transform="rotate(7.80143 48.6541 126.072)" fill="#D9D9D9"/>
</mask>
<g mask="url(#mask0_49_47)">
<path d="M49.1141 141.941C48.8094 141.9 48.5634 141.755 48.3761 141.509C48.1888 141.262 48.116 140.986 48.1577 140.681L48.4816 138.317L63.2581 140.342L62.9342 142.706C62.8924 143.011 62.7482 143.257 62.5015 143.444C62.2547 143.631 61.9789 143.704 61.6741 143.662L49.1141 141.941ZM56.1685 137.15C55.6636 137.081 55.2726 137.165 54.9954 137.403C54.7181 137.641 54.247 137.715 53.5821 137.623C52.9172 137.532 52.4955 137.337 52.3171 137.036C52.1387 136.736 51.7971 136.551 51.2923 136.482C50.7874 136.413 50.3911 136.496 50.1032 136.733C49.8155 136.969 49.3374 137.042 48.6689 136.95L48.8208 135.842C49.2271 135.898 49.5997 135.811 49.9385 135.581C50.2773 135.352 50.7792 135.282 51.4441 135.373C52.109 135.465 52.5307 135.66 52.7091 135.961C52.8874 136.261 53.2291 136.446 53.7339 136.515C54.2388 136.584 54.6298 136.5 54.9071 136.262C55.1843 136.024 55.6554 135.95 56.3203 136.042C56.9853 136.133 57.4193 136.33 57.6223 136.634C57.8253 136.938 58.1792 137.124 58.6841 137.193C59.1889 137.263 59.5676 137.176 59.8203 136.935C60.0729 136.694 60.5316 136.619 61.1966 136.71C61.8615 136.801 62.3263 137.002 62.5908 137.315C62.8554 137.627 63.1909 137.811 63.5972 137.867L63.4454 138.975C62.7804 138.884 62.3403 138.685 62.125 138.38C61.9097 138.074 61.5496 137.887 61.0447 137.818C60.5399 137.749 60.1611 137.835 59.9085 138.076C59.6559 138.318 59.1972 138.393 58.5322 138.302C57.8673 138.211 57.4333 138.013 57.2303 137.709C57.0273 137.405 56.6734 137.219 56.1685 137.15ZM49.1143 133.699L49.2155 132.961C49.3994 131.618 50.1939 130.626 51.5991 129.985C53.0042 129.343 54.8766 129.182 57.2162 129.503C59.5558 129.824 61.316 130.482 62.4967 131.478C63.6775 132.474 64.1759 133.643 63.992 134.985L63.8908 135.724L49.1143 133.699Z" fill="#1C1B1F"/>
</g>
<rect x="73.3499" y="104" width="33.1008" height="33.1008" rx="3" transform="rotate(25.3976 73.3499 104)" fill="#FF9AA8"/>
<path d="M79.0894 134.538L78.8612 132.976C77.3777 132.62 76.1442 131.969 75.1606 131.022C74.177 130.075 73.541 128.941 73.2525 127.62L74.8541 127.386L73.8592 120.579L88.0401 116.87L88.1864 117.871L78.9288 120.288L79.1834 122.03L88.5932 120.654L88.7395 121.655L79.3297 123.031L79.8594 126.655L89.2692 125.279C89.3842 126.626 89.096 127.895 88.4045 129.086C87.713 130.278 86.7142 131.256 85.408 132.019L85.6363 133.581L79.0894 134.538ZM77.1813 122.322L78.1823 122.176L77.9424 120.534L76.9589 120.801L77.1813 122.322ZM75.1792 122.615L76.1802 122.469L75.9725 121.047L74.988 121.307L75.1792 122.615ZM77.8573 126.947L78.8583 126.801L78.3286 123.177L77.3276 123.323L77.8573 126.947ZM75.8552 127.24L76.8562 127.093L76.3265 123.47L75.3255 123.616L75.8552 127.24Z" fill="#1C1B1F"/>
<rect x="110.059" y="97" width="33.1008" height="33.1008" rx="3" transform="rotate(41.438 110.059 97)" fill="#FFD861"/>
<mask id="mask1_49_47" style="mask-type:alpha" maskUnits="userSpaceOnUse" x="99" y="108" width="25" height="25">
<rect x="106.511" y="108.71" width="17.9308" height="17.9308" transform="rotate(21.7629 106.511 108.71)" fill="#D9D9D9"/>
</mask>
<g mask="url(#mask1_49_47)">
<path d="M104.632 125.658L107.215 119.188C106.626 118.751 106.233 118.222 106.039 117.602C105.844 116.981 105.871 116.358 106.121 115.734L108.039 110.929L109.08 111.344L107.369 115.629L108.462 116.065L110.172 111.781L111.213 112.196L109.503 116.481L110.613 116.924L112.323 112.639L113.364 113.055L111.446 117.86C111.192 118.496 110.782 118.969 110.216 119.279C109.649 119.589 108.996 119.697 108.256 119.603L105.673 126.073L104.632 125.658ZM111.797 128.518L114.49 121.77C113.919 121.287 113.565 120.653 113.43 119.868C113.294 119.083 113.399 118.257 113.745 117.39C114.147 116.384 114.748 115.635 115.547 115.143C116.347 114.651 117.117 114.553 117.857 114.848C118.597 115.144 119.088 115.745 119.329 116.653C119.57 117.56 119.49 118.517 119.088 119.523C118.742 120.39 118.249 121.062 117.61 121.537C116.971 122.013 116.276 122.235 115.524 122.203L112.837 128.933L111.797 128.518Z" fill="#1C1B1F"/>
</g>
<circle cx="46.153" cy="117" r="1" fill="#FE5757"/>
<circle cx="110.153" cy="98" r="1" fill="#FE5757"/>
<circle cx="74.153" cy="105" r="1" fill="#FE5757"/>
</g>
<defs>
<clipPath id="clip0_49_47">
<rect width="168" height="168" fill="white"/>
</clipPath>
</defs>
</svg>
