<svg width="138" height="212" viewBox="0 0 138 212" fill="none" xmlns="http://www.w3.org/2000/svg">
<path d="M81.383 20.4514L72.114 18.3284C71.5564 18.2017 71.002 18.552 70.8754 19.1144L66.6595 37.7942C66.5329 38.355 66.8816 38.9141 67.4392 39.0424L76.7082 41.1638C77.2658 41.2921 77.8202 40.9402 77.9468 40.3794L82.1627 21.6996C82.291 21.1371 81.9406 20.578 81.383 20.4514Z" fill="white" stroke="black" stroke-width="0.5"/>
<path d="M75.4022 21.2597L77.3596 21.7086L76.5733 25.1949L74.5172 24.7246C74.4596 24.7114 74.4333 24.6917 74.4202 24.6753C74.328 24.5503 74.1126 24.1178 74.3379 22.9995C74.5468 21.9602 74.9482 21.4882 75.1571 21.3041C75.213 21.2547 75.3002 21.2366 75.4022 21.2597Z" fill="white" stroke="black" stroke-width="0.5"/>
<path d="M77.5039 21.7414C77.8526 21.822 78.1355 22.0572 78.3 22.4255C78.4662 22.7972 78.5155 23.3086 78.3757 23.9269C78.2359 24.5453 77.9908 24.9054 77.7095 25.0929C77.4299 25.2787 77.0877 25.3132 76.716 25.2277C76.3459 25.1422 76.0514 24.9629 75.8787 24.6735C75.706 24.3808 75.6385 23.9516 75.7784 23.3333C75.9182 22.7133 76.1814 22.2742 76.4906 22.0111C76.7982 21.7513 77.1535 21.6608 77.5039 21.7414Z" fill="white" stroke="black" stroke-width="0.5"/>
<path d="M73.0288 17.893C73.1012 17.5707 73.4187 17.3701 73.7378 17.4441L74.5126 17.6217C74.8317 17.694 75.0307 18.0131 74.9583 18.3338L74.8531 18.8041L72.9236 18.3617L73.0288 17.893Z" fill="black"/>
<path d="M72.0086 22.7229C72.2471 22.7772 72.3968 23.0172 72.3425 23.2573L69.76 34.6981C69.7057 34.9382 69.4688 35.0895 69.2287 35.0352L67.3782 34.6109L70.1564 22.2986L72.0086 22.7229Z" stroke="black" stroke-width="0.5"/>
<path d="M68.7122 28.4358C66.8715 28.5246 63.5192 27.2468 64.8302 21.4368" stroke="black" stroke-width="0.5"/>
<path d="M64.8318 21.4367C65.3088 21.5452 65.7843 21.2443 65.8928 20.7625C66.0014 20.2823 65.702 19.8021 65.225 19.6936C64.7463 19.5834 64.2709 19.886 64.1624 20.3661C64.0538 20.848 64.3532 21.3265 64.8318 21.4367Z" fill="black"/>
<path fill-rule="evenodd" clip-rule="evenodd" d="M30.0951 24.7456C27.7692 21.9976 26.1967 18.6298 26.4582 14.8556C27.2165 3.9806 42.2459 6.37332 45.1706 11.861C48.0936 17.3503 47.7465 31.2726 43.9682 32.2527C42.4614 32.6441 39.2506 31.687 35.9838 29.7038L38.035 44.3151H25.9253L30.0951 24.7456Z" fill="#B28B67"/>
<path fill-rule="evenodd" clip-rule="evenodd" d="M39.8295 12.6569C38.1862 13.5828 37.0167 15.3177 35.6103 17.5937C35.2665 17.4572 34.8931 17.3832 34.5033 17.3832C32.8304 17.3832 31.475 18.7481 31.475 20.4321C31.475 21.2872 31.8254 22.0601 32.3879 22.6127C31.6872 23.6092 30.9026 24.6485 30.0029 25.7224C26.6456 23.6947 24.1486 17.7828 27.3545 12.0748C30.1114 0.64224 45.7379 7.73825 48.7448 5.8109C49.4011 9.95832 47.2809 13.3032 39.8295 12.6569Z" fill="#191847"/>
<path fill-rule="evenodd" clip-rule="evenodd" d="M25.4385 88.4321L50.2008 151.559L66.8093 204.928H73.3691L47.9769 88.4321H25.4385Z" fill="#997659"/>
<path fill-rule="evenodd" clip-rule="evenodd" d="M55.701 91.4417L30.9387 154.569L14.3302 207.938H7.77197L33.1626 91.4417H55.701Z" fill="#997659"/>
<path fill-rule="evenodd" clip-rule="evenodd" d="M7.14359 204.338C6.57939 205.856 6.2981 206.992 6.2981 207.745C6.2981 208.661 6.44943 209.998 6.75209 211.756C7.80811 211.756 17.2926 211.756 35.2088 211.756C35.949 209.294 35.5214 207.966 33.9275 207.768C32.3352 207.572 31.0111 207.395 29.9583 207.237L16.7317 201.297C16.4768 201.184 16.179 201.299 16.0655 201.555C16.0638 201.56 16.0606 201.563 16.0589 201.568L15.2085 203.645C13.7347 204.339 12.5355 204.685 11.6144 204.685C10.8643 204.685 9.82969 204.381 8.51049 203.77C8.00386 203.537 7.40348 203.761 7.17155 204.272C7.16168 204.293 7.15346 204.315 7.14359 204.338Z" fill="#E4E4E4"/>
<path fill-rule="evenodd" clip-rule="evenodd" d="M64.1244 202.463C63.5602 203.981 63.2773 205.117 63.2773 205.87C63.2773 206.786 63.4286 208.123 63.7329 209.881C64.7873 209.881 74.2735 209.881 92.1881 209.881C92.9283 207.419 92.5006 206.091 90.9083 205.893C89.3144 205.697 87.992 205.52 86.9376 205.362L73.7109 199.422C73.456 199.309 73.1582 199.424 73.0447 199.68C73.0431 199.685 73.0415 199.689 73.0398 199.693L72.1894 201.77C70.7139 202.464 69.5164 202.81 68.5936 202.81C67.8452 202.81 66.8089 202.506 65.4897 201.895C64.9831 201.662 64.3843 201.886 64.1524 202.397C64.1425 202.418 64.1327 202.44 64.1244 202.463Z" fill="#E4E4E4"/>
<path fill-rule="evenodd" clip-rule="evenodd" d="M42.0877 199.431L73.27 196.022L50.1592 88.4321H22.2305L42.0877 199.431Z" fill="#69A1AC"/>
<path fill-rule="evenodd" clip-rule="evenodd" d="M31.5862 200.956L0.403809 197.547L23.513 89.958H51.4417L31.5862 200.956Z" fill="#89C5CC"/>
<path d="M34.2495 66.8349C55.7335 49.8358 65.1111 39.4738 66.1178 38.4476C68.3811 36.1437 67.7594 30.9274 67.6837 28.2337C71.5887 28.1383 68.9815 33.4566 73.9376 33.2626C78.4627 33.0866 77.9133 26.0646 81.1817 30.61C81.5831 31.1675 82.1161 32.7577 81.0239 33.7526C78.29 36.2408 73.1316 41.1528 71.8584 42.2695C70.1231 43.7906 61.9841 54.5884 40.3866 69.249L34.2495 66.8349Z" fill="#D8AB81"/>
<path d="M115.288 77.4977C116.236 77.3036 117.652 76.6096 114.977 75.2759C112.303 73.9422 109.549 72.4194 109.709 71.3324C109.87 70.247 112.033 70.127 112.011 68.522C111.998 67.4498 108.592 68.078 101.793 70.405L84.1107 67.8066L82.6665 77.5634L103.224 75.5901C107.735 76.8662 111.757 77.5026 115.288 77.4977Z" fill="#B28B67"/>
<path fill-rule="evenodd" clip-rule="evenodd" d="M25.6572 40.8007L33.1563 32.3809C47.7367 54.1063 86.3852 57.5153 91.44 65.7674C93.2938 68.7949 92.0749 70.1434 93.6228 70.7403L88.7621 77.7755C87.4544 76.9829 86.0941 79.6732 81.4144 79.6519C76.7363 79.6321 34.8999 69.1764 25.6572 40.8007Z" fill="#DB2721"/>
<path d="M55.4623 95.309C59.7588 81.9146 40.4691 73.3961 40.9905 40.0047L41.3721 34.5466L41.3754 34.5449C41.4511 33.425 40.6138 32.4531 39.5019 32.3775L25.2521 31.3809C24.1402 31.3036 23.1779 32.1472 23.0973 33.2671C23.0973 33.2671 7.9955 68.3294 8.49555 91.9493C8.61892 97.7215 9.69797 103.03 12.0765 107.419C17.9537 118.261 51.9143 106.371 55.4623 95.309Z" fill="#FF4133"/>
<path fill-rule="evenodd" clip-rule="evenodd" d="M11.7642 82.3309L20.5249 65.5964C41.3724 75.2102 52.3191 39.5411 61.7905 37.8012C65.2645 37.1631 65.0868 38.7402 66.2004 37.5068L72.5136 43.3152C71.3046 44.2542 73.2965 46.5088 71.576 50.8913C69.8554 55.2739 39.308 97.355 11.7642 82.3309Z" fill="#FF4133"/>
<mask id="mask0_128_545" style="mask-type:luminance" maskUnits="userSpaceOnUse" x="91" y="58" width="47" height="19">
<path d="M137.196 58.4067H91.6392V76.8794H137.196V58.4067Z" fill="white"/>
</mask>
<g mask="url(#mask0_128_545)">
<path d="M114.418 76.8798C126.998 76.8798 137.197 73.1583 137.197 68.5669C137.197 63.9771 126.998 60.2556 114.418 60.2556C101.838 60.2556 91.6394 63.9771 91.6394 68.5669C91.6394 73.1583 101.838 76.8798 114.418 76.8798Z" fill="#EAE2E2"/>
<path d="M114.188 75.4946C125.372 75.4946 134.435 72.186 134.435 68.106C134.435 64.0243 125.372 60.7156 114.188 60.7156C103.006 60.7156 93.9409 64.0243 93.9409 68.106C93.9409 72.186 103.006 75.4946 114.188 75.4946Z" fill="#FFFBFB"/>
<g filter="url(#filter0_d_128_545)">
<path d="M101.303 69.3643C101.303 64.0576 107.814 64.0576 107.814 64.0576C109.885 61.405 109.589 59.6635 114.915 59.3428C116.69 59.2343 118.289 59.9315 119.353 60.5203C121.72 61.8309 122.016 64.0576 122.016 64.0576C122.016 64.0576 122.904 63.7632 124.089 64.2418C125.271 64.648 126.811 65.9438 127.048 68.774C127.145 69.9531 127.048 69.953 125.271 69.953H120.241H114.915H109.885H106.038H102.784C101.304 69.953 101.303 69.3643 101.303 69.3643Z" fill="#FFC170"/>
<path d="M107.814 64.0576C107.814 64.0576 101.303 64.0576 101.303 69.3643C101.303 69.3643 101.304 69.953 102.784 69.953C103.532 69.953 104.667 69.953 106.038 69.953M107.814 64.0576C109.885 61.405 109.589 59.6635 114.915 59.3428M107.814 64.0576C107.123 64.9423 105.801 67.3597 106.038 69.953M106.038 69.953C107.186 69.953 108.497 69.953 109.885 69.953M114.915 59.3428C116.69 59.2343 118.289 59.9315 119.353 60.5203M114.915 59.3428C113.239 60.5203 109.885 64.2943 109.885 69.953M109.885 69.953C111.505 69.953 113.229 69.953 114.915 69.953M119.353 60.5203C121.72 61.8309 122.016 64.0576 122.016 64.0576M119.353 60.5203C117.578 61.6023 114.204 65.0015 114.915 69.953M114.915 69.953C116.805 69.953 118.647 69.953 120.241 69.953M122.016 64.0576C122.016 64.0576 122.904 63.8372 124.089 64.2418M122.016 64.0576C122.016 64.0576 122.904 63.7632 124.089 64.2418M122.016 64.0576C121.129 64.648 119.531 66.6509 120.241 69.953M124.089 64.2418C125.271 64.648 126.811 65.9438 127.048 68.774C127.145 69.9531 127.048 69.953 125.271 69.953C125.271 69.953 123.177 69.953 120.241 69.953" stroke="black" stroke-width="0.5"/>
</g>
<path d="M110.507 69.491L114.649 59.7935C113.861 60.6272 112.874 61.045 111.691 63.8603C110.507 66.6757 110.704 68.1359 110.507 69.491Z" fill="#ECE1BB" stroke="#FFD078" stroke-width="0.5"/>
<path d="M106.365 69.4908L109.587 63.0247C108.974 63.5821 108.206 63.8601 107.286 65.7365C106.365 67.6145 106.52 68.5864 106.365 69.4908Z" fill="#ECE1BB" stroke="#FFD078" stroke-width="0.5"/>
<path d="M116.576 64.9141L119.205 60.8325C118.782 61.1499 118.304 61.2617 117.549 62.449C116.794 63.6347 116.769 64.3139 116.576 64.9141Z" fill="#ECE1BB" stroke="#FFD078" stroke-width="0.5"/>
<path d="M120.225 67.7214L122.418 64.3157C122.066 64.5804 121.666 64.6742 121.036 65.6642C120.406 66.6542 120.386 67.2198 120.225 67.7214Z" fill="#ECE1BB" stroke="#FFD078" stroke-width="0.5"/>
</g>
<path d="M101.456 14.0319L101.059 14.8443C101.012 14.79 100.923 14.7325 100.791 14.6684C100.658 14.596 100.499 14.5335 100.309 14.4793C100.13 14.425 99.931 14.3789 99.7139 14.3427C99.4968 14.2983 99.2846 14.2753 99.0757 14.2753C98.8684 14.2753 98.671 14.2983 98.4818 14.3427C98.3026 14.3789 98.143 14.4431 97.9999 14.5335C97.8584 14.624 97.7449 14.7456 97.6594 14.8986C97.5837 15.0515 97.5459 15.2373 97.5459 15.4544C97.5459 15.7422 97.6594 16.0316 97.8864 16.3211C98.1233 16.6006 98.4818 16.8226 98.9638 16.9838C99.5872 17.2189 100.074 17.4673 100.423 17.7287C100.781 17.9902 101.045 18.2533 101.216 18.5148C101.395 18.7763 101.508 19.0345 101.556 19.2861C101.604 19.5393 101.627 19.7745 101.627 19.9916C101.599 20.7398 101.347 21.322 100.877 21.7381C100.403 22.1525 99.7056 22.3613 98.7796 22.3613C98.4012 22.3613 97.9851 22.3202 97.5327 22.2396C97.0886 22.1673 96.6034 22.0488 96.0737 21.8877L96.3846 20.9388C96.6774 21.0473 97.0409 21.1509 97.4752 21.2496C97.9193 21.34 98.3585 21.3861 98.7928 21.3861C99.0477 21.3861 99.2895 21.3631 99.5149 21.3187C99.7435 21.2727 99.9409 21.2003 100.112 21.1016C100.28 20.9931 100.413 20.8533 100.508 20.6823C100.61 20.5096 100.663 20.2974 100.663 20.0458C100.653 19.6117 100.545 19.2647 100.337 19.0016C100.14 18.7401 99.8882 18.523 99.5872 18.352C99.2845 18.181 98.9589 18.0264 98.6102 17.8915C98.2598 17.7567 97.9341 17.5939 97.6314 17.4048C97.3386 17.214 97.0936 16.9756 96.8945 16.6861C96.6971 16.3967 96.5985 16.0136 96.5985 15.535C96.5985 15.1469 96.6593 14.818 96.781 14.5467C96.9044 14.2753 97.0738 14.0599 97.2926 13.8971C97.5179 13.7244 97.7778 13.6027 98.0706 13.5303C98.3733 13.4498 98.699 13.4087 99.0477 13.4087C99.5017 13.4087 99.9409 13.4679 100.365 13.5846C100.791 13.6932 101.155 13.8428 101.456 14.0319ZM106.358 17.7962H103.611V22.1311L102.902 22.2117V16.3885L103.583 16.2536V16.9295L106.868 16.7404L107.292 17.5528L107.718 21.9683L106.812 22.2117L106.358 17.7962ZM113.582 18.204L114.49 21.8877L113.64 22.1853L113.13 19.883C113.062 20.1346 112.959 20.3978 112.817 20.6675C112.686 20.9388 112.516 21.1872 112.307 21.4124C112.11 21.6295 111.868 21.8104 111.585 21.9551C111.312 22.09 111 22.1574 110.651 22.1574C110.027 22.1574 109.55 21.9683 109.22 21.5884C108.899 21.2003 108.738 20.6675 108.738 19.9916C108.738 19.6035 108.799 19.2006 108.922 18.7862C109.045 18.3619 109.228 17.9771 109.475 17.635C109.72 17.2913 110.027 17.0068 110.394 16.7815C110.773 16.5562 111.212 16.4428 111.713 16.4428C112.005 16.4428 112.26 16.5053 112.478 16.6319C112.704 16.7503 112.893 16.8983 113.044 17.0792C113.195 17.2601 113.314 17.4541 113.398 17.6613C113.483 17.8603 113.544 18.0412 113.582 18.204ZM111.855 17.4179C111.789 17.3999 111.722 17.3867 111.656 17.3768C111.6 17.3686 111.537 17.3637 111.472 17.3637C111.179 17.3637 110.916 17.4492 110.679 17.6202C110.452 17.783 110.258 17.9903 110.098 18.2435C109.947 18.4968 109.828 18.7714 109.744 19.0707C109.667 19.3683 109.629 19.6429 109.629 19.8962C109.629 20.2941 109.72 20.6132 109.899 20.8582C110.078 21.1016 110.361 21.2233 110.75 21.2233C111.014 21.2233 111.259 21.1427 111.486 20.9799C111.713 20.8073 111.906 20.5951 112.067 20.3435C112.227 20.0902 112.35 19.8156 112.436 19.5163C112.529 19.2104 112.577 18.9259 112.577 18.6645C112.577 18.375 112.516 18.1218 112.393 17.9047C112.279 17.6794 112.1 17.5166 111.855 17.4179ZM120.581 18.9884V19.2729C120.581 19.7876 120.5 20.2169 120.339 20.5589C120.18 20.9026 119.976 21.1789 119.731 21.3861C119.495 21.5851 119.229 21.7249 118.936 21.8055C118.645 21.8877 118.365 21.9272 118.101 21.9272C117.8 21.9272 117.517 21.891 117.252 21.8186C116.997 21.7462 116.803 21.6607 116.671 21.5621L116.785 24.5961L115.906 24.6767V17.3094L115.992 16.6861C116.689 16.5332 117.295 16.4559 117.804 16.4559C118.683 16.4559 119.352 16.6681 119.816 17.0923C120.288 17.5084 120.543 18.1399 120.581 18.9884ZM116.528 17.635L116.586 20.3155C116.595 20.3616 116.642 20.4158 116.727 20.4783C116.822 20.5408 116.939 20.605 117.081 20.6675C117.232 20.7218 117.398 20.7711 117.577 20.8171C117.757 20.8533 117.941 20.8714 118.129 20.8714C118.309 20.8714 118.489 20.8434 118.668 20.7891C118.857 20.7266 119.022 20.6231 119.165 20.4783C119.314 20.3336 119.438 20.1396 119.533 19.8962C119.627 19.6528 119.673 19.3502 119.673 18.9884C119.673 18.7088 119.617 18.4655 119.504 18.2567C119.4 18.0412 119.254 17.8652 119.064 17.7287C118.885 17.584 118.678 17.4804 118.441 17.4179C118.214 17.3456 117.979 17.3094 117.732 17.3094C117.517 17.3094 117.303 17.3357 117.096 17.39C116.888 17.4443 116.699 17.5265 116.528 17.635ZM124.037 21.9683L123.272 22.9698L122.081 21.8055L122.876 20.8582L124.037 21.9683ZM123.583 20.0458H122.422V13.1653H123.583V20.0458Z" fill="black"/>
<path d="M57.476 8.31045L57.3378 9.19026C57.2802 9.15079 57.1799 9.11787 57.0417 9.0932C56.9002 9.05867 56.7341 9.04059 56.5449 9.03895C56.3657 9.03402 56.1699 9.04388 55.961 9.0669C55.7488 9.08006 55.5465 9.11461 55.3557 9.16888C55.1649 9.22479 54.9889 9.29712 54.8277 9.39085C54.673 9.47308 54.5431 9.57506 54.4378 9.69839C54.3325 9.82173 54.2618 9.96809 54.2273 10.1375C54.1993 10.3036 54.2158 10.4894 54.2766 10.6966C54.3556 10.9712 54.5398 11.2179 54.8293 11.4333C55.1254 11.6389 55.5169 11.754 56.0038 11.7836C56.642 11.8428 57.1585 11.9514 57.5533 12.1092C57.9546 12.2638 58.2704 12.4447 58.5007 12.6503C58.7376 12.8526 58.9136 13.0679 59.0271 13.2965C59.1406 13.5251 59.2278 13.7422 59.2886 13.9494C59.4712 14.6713 59.4021 15.293 59.083 15.8143C58.7639 16.3339 58.18 16.7155 57.3279 16.9605C56.9809 17.0592 56.5877 17.1299 56.1469 17.1726C55.7192 17.2203 55.2389 17.2351 54.7076 17.2203L54.7306 16.2336C55.0316 16.2599 55.3935 16.2632 55.8212 16.2435C56.2538 16.2123 56.67 16.1399 57.0697 16.0264C57.3049 15.959 57.5204 15.8735 57.7161 15.7715C57.9119 15.6679 58.073 15.5479 58.203 15.4081C58.3297 15.2601 58.4119 15.0923 58.4498 14.9032C58.4991 14.7125 58.4876 14.4954 58.4168 14.2553C58.2885 13.8442 58.0928 13.5416 57.828 13.3459C57.573 13.1485 57.2819 13.0071 56.9578 12.9232C56.6321 12.8394 56.2884 12.7786 55.9298 12.7424C55.5712 12.7046 55.2258 12.6355 54.8968 12.5335C54.5744 12.4299 54.2816 12.2671 54.02 12.0434C53.7568 11.8198 53.5595 11.4794 53.4262 11.0239C53.3177 10.6538 53.2831 10.3233 53.321 10.0322C53.3588 9.74115 53.4542 9.48952 53.6088 9.27738C53.77 9.05373 53.9756 8.86959 54.224 8.72323C54.479 8.567 54.7685 8.44199 55.0892 8.3499C55.5054 8.23149 55.9265 8.17068 56.3492 8.17068C56.7703 8.16246 57.147 8.20849 57.476 8.31045ZM64.4289 11.4416L64.5079 11.7129C64.651 12.2046 64.6971 12.6338 64.6444 13.0038C64.5918 13.3739 64.4816 13.6896 64.3138 13.9527C64.1509 14.2043 63.947 14.4066 63.7003 14.5612C63.4535 14.7157 63.2085 14.8276 62.965 14.8983C62.687 14.9772 62.4172 15.0184 62.1541 15.0184C61.8991 15.0167 61.6984 14.9855 61.5487 14.9263L62.4945 17.7893L61.7099 18.0985L59.6637 11.0715L59.5683 10.4548C60.1687 10.1243 60.7033 9.89082 61.1721 9.75761C61.9797 9.52574 62.6558 9.55205 63.1986 9.8349C63.7496 10.1062 64.1592 10.6423 64.4289 11.4416ZM60.3266 11.2163L61.1243 13.7603C61.1457 13.7998 61.2033 13.8393 61.3003 13.8771C61.404 13.9133 61.5306 13.9428 61.6787 13.9659C61.8317 13.9774 61.9978 13.9806 62.1754 13.9774C62.3498 13.9642 62.5241 13.933 62.6985 13.8837C62.863 13.836 63.0209 13.762 63.1706 13.6633C63.3269 13.5531 63.4503 13.4117 63.5391 13.2357C63.6394 13.0581 63.6986 12.841 63.7167 12.5828C63.7365 12.3263 63.6953 12.0253 63.595 11.68C63.5177 11.4136 63.3976 11.1966 63.2364 11.0272C63.0801 10.8479 62.8959 10.7196 62.6854 10.639C62.4797 10.5486 62.261 10.5042 62.0257 10.5075C61.7971 10.4976 61.5701 10.5256 61.3448 10.5897C61.1441 10.6473 60.9566 10.7295 60.7806 10.8348C60.6046 10.9416 60.4532 11.0683 60.3266 11.2163ZM65.253 11.6537C65.1149 11.1801 65.0688 10.764 65.1149 10.4055C65.1593 10.0388 65.258 9.7313 65.411 9.48134C65.5705 9.22151 65.7679 9.01593 66.0064 8.863C66.2433 8.70184 66.4818 8.58674 66.7252 8.51767C67.0723 8.41735 67.3996 8.37953 67.7072 8.4042C68.0132 8.419 68.2961 8.51601 68.5543 8.69362C68.8192 8.85971 69.0593 9.1179 69.2732 9.46653C69.4887 9.81681 69.6762 10.2657 69.8358 10.8183L66.3156 12.203C66.4127 12.4365 66.5377 12.6256 66.6923 12.767C66.8519 12.8986 67.0295 12.9923 67.2253 13.0482C67.421 13.1041 67.62 13.1272 67.824 13.1157C68.028 13.1041 68.2287 13.0696 68.4293 13.0121C68.7583 12.9167 69.0626 12.7785 69.3373 12.5976C69.6153 12.4151 69.8061 12.2342 69.9131 12.055L70.3292 12.6075C70.293 12.7111 70.2272 12.8229 70.1302 12.9446C70.0348 13.0647 69.9114 13.1798 69.765 13.2867C69.6203 13.4035 69.4475 13.5087 69.2501 13.6024C69.0626 13.7027 68.8603 13.7833 68.6432 13.8458C68.3389 13.933 68.0214 13.9724 67.6908 13.9659C67.3585 13.9576 67.0394 13.877 66.7302 13.7225C66.4226 13.5679 66.1397 13.3261 65.8847 12.9989C65.6264 12.6618 65.4159 12.2145 65.253 11.6537ZM66.0163 11.4629L68.7912 10.3332C68.6679 9.91056 68.459 9.60795 68.1596 9.42212C67.8586 9.22807 67.4556 9.20338 66.9522 9.34809C66.7121 9.42703 66.513 9.53888 66.3584 9.68524C66.2137 9.82996 66.1002 9.99276 66.0212 10.1737C65.9406 10.3463 65.8962 10.5321 65.8864 10.7311C65.8781 10.9285 65.9028 11.1225 65.9571 11.3116C65.9785 11.3807 65.9965 11.4317 66.0163 11.4629ZM74.8675 7.64112L76.7229 10.917L76.0255 11.4251L74.9168 9.3629C74.9267 9.62109 74.9037 9.89902 74.8478 10.195C74.8017 10.4878 74.7145 10.769 74.5862 11.0387C74.4645 11.2985 74.2934 11.5336 74.073 11.7458C73.8575 11.9481 73.591 12.0944 73.2686 12.1865C72.6945 12.3493 72.2044 12.295 71.7948 12.0204C71.3918 11.7343 71.0974 11.2689 70.9082 10.6226C70.7996 10.2526 70.7454 9.85299 70.7437 9.42377C70.7388 8.98798 70.7996 8.57355 70.9312 8.18052C71.0612 7.78913 71.2652 7.43721 71.5415 7.12475C71.8261 6.81066 72.1978 6.58703 72.6584 6.45547C72.9282 6.37818 73.1798 6.3716 73.415 6.43409C73.6568 6.48672 73.8707 6.57877 74.0598 6.71198C74.249 6.84353 74.4118 6.99813 74.5467 7.17409C74.68 7.34018 74.7869 7.4964 74.8675 7.64112ZM73.0597 7.34678C72.9939 7.34842 72.9298 7.35172 72.8656 7.36158C72.8113 7.36816 72.7538 7.37967 72.6929 7.39611C72.4248 7.4734 72.2044 7.62471 72.0349 7.85165C71.8721 8.06543 71.7504 8.31536 71.6731 8.59822C71.604 8.87942 71.5728 9.17216 71.5777 9.47968C71.5908 9.78391 71.6319 10.0553 71.7027 10.297C71.8129 10.6769 71.984 10.9581 72.2176 11.1439C72.4495 11.3281 72.7439 11.3708 73.1009 11.2689C73.3427 11.1981 73.5466 11.0568 73.7095 10.8413C73.8707 10.6193 73.9908 10.3661 74.0681 10.0816C74.1454 9.79871 74.1815 9.50435 74.1766 9.19683C74.1782 8.87945 74.1437 8.59495 74.0697 8.34663C73.9907 8.07036 73.8641 7.84504 73.6897 7.67073C73.522 7.4849 73.3131 7.37802 73.0597 7.34678ZM77.8661 7.85983L80.2397 4.089L81.0309 4.67282L79.7857 6.79423L83.0015 8.92382L82.6922 9.7954L79.2923 7.61974L78.5175 8.93371L79.0258 10.6785L78.274 11.0041L75.7837 2.45274L76.2081 2.16332L77.8661 7.85983ZM86.2041 8.28576L85.7797 9.4435L84.3618 8.64594L84.8273 7.53262L86.2041 8.28576ZM85.2534 6.57221L84.1859 6.87809L82.2744 0.314917L83.3436 0.0090332L85.2534 6.57221Z" fill="black"/>
<path d="M86.3147 25.5629L95.7811 25.0366L95.485 26.8242L86.3147 26.1944V25.5629Z" fill="black"/>
<path d="M84.9573 27.3193L94.0404 30.0509L93.111 31.5917L84.9573 28.0166V27.3193Z" fill="black"/>
<path d="M83.062 29.6314L90.5414 35.4989L91.2487 33.8429L83.6262 29.2268L83.062 29.6314Z" fill="black"/>
<path d="M48.6973 25.1981L57.3988 21.4109L57.7343 23.1902L48.9128 25.7918L48.6973 25.1981Z" fill="black"/>
<path d="M49.0586 26.4919L58.5003 25.6318L58.2059 27.4112L49.3152 27.1398L49.0586 26.4919Z" fill="black"/>
<path d="M48.562 28.6317L57.6879 31.2218L57.7208 29.4194L48.9338 28.043L48.562 28.6317Z" fill="black"/>
<defs>
<filter id="filter0_d_128_545" x="101.053" y="58.0815" width="28.2698" height="13.1216" filterUnits="userSpaceOnUse" color-interpolation-filters="sRGB">
<feFlood flood-opacity="0" result="BackgroundImageFix"/>
<feColorMatrix in="SourceAlpha" type="matrix" values="0 0 0 0 0 0 0 0 0 0 0 0 0 0 0 0 0 0 127 0" result="hardAlpha"/>
<feOffset dx="1"/>
<feGaussianBlur stdDeviation="0.5"/>
<feComposite in2="hardAlpha" operator="out"/>
<feColorMatrix type="matrix" values="0 0 0 0 0 0 0 0 0 0 0 0 0 0 0 0 0 0 0.4 0"/>
<feBlend mode="normal" in2="BackgroundImageFix" result="effect1_dropShadow_128_545"/>
<feBlend mode="normal" in="SourceGraphic" in2="effect1_dropShadow_128_545" result="shape"/>
</filter>
</defs>
</svg>
